<?xml version="1.0" encoding="utf-8"?>
<!-- Generator: Adobe Illustrator 24.1.0, SVG Export Plug-In . SVG Version: 6.00 Build 0)  -->
<svg version="1.1" id="Capa_1"
	xmlns="http://www.w3.org/2000/svg"
	xmlns:xlink="http://www.w3.org/1999/xlink" x="0px" y="0px" viewBox="0 0 973.2 973.2" style="enable-background:new 0 0 973.2 973.2;" xml:space="preserve" fill='rgb(90, 93, 246)'>
	<style type="text/css">
	.st0{fill:current;}
	</style>
	<g>
		<path class="st0" d="M924,828.8V315.6c-3.6,0.3-7.2,0.5-10.8,0.5H60c-3.6,0-7.3-0.2-10.8-0.5v513.1c0,33.1,26.9,60,60,60H864
		C897.1,888.8,924,861.9,924,828.8z M687,513.3c0,16.6-13.4,30-30,30H316.2c-16.6,0-30-13.4-30-30v-79.6c0-16.6,13.4-30,30-30h340.7
		c16.6,0,30,13.4,30,30L687,513.3L687,513.3z"/>
		<path class="st0" d="M973.2,196.1v-51.7c0-33.1-26.9-60-60-60H60c-33.1,0-60,26.9-60,60v51.7c0,29.4,21.2,53.9,49.2,59
		c3.5,0.6,7.1,1,10.8,1h853.1c3.7,0,7.3-0.4,10.8-1C952,250,973.2,225.5,973.2,196.1z"/>
	</g>
</svg>
