<?xml version="1.0" encoding="utf-8"?>
<!-- Generator: Adobe Illustrator 24.1.0, SVG Export Plug-In . SVG Version: 6.00 Build 0)  -->
<svg version="1.1" id="Capa_1" xmlns="http://www.w3.org/2000/svg" xmlns:xlink="http://www.w3.org/1999/xlink" x="0px" y="0px"
	 viewBox="0 0 512 512" style="enable-background:new 0 0 512 512;" xml:space="preserve">
<style type="text/css">
	.st0{fill:#FFFFFF;}
</style>
<g>
	<path class="st0" d="M326,420H186c-8.3,0-15,6.7-15,15s6.7,15,15,15h140c8.3,0,15-6.7,15-15S334.3,420,326,420z"/>
	<path class="st0" d="M511.6,311.6l-61-260C449,44.8,443,40,436,40h-65V15c0-8.3-6.7-15-15-15H156c-8.3,0-15,6.7-15,15v25H76
		c-7,0-13,4.8-14.6,11.6l-61,260C0.1,312.7,0,313.8,0,315v182c0,8.3,6.7,15,15,15h482c8.3,0,15-6.7,15-15V315
		C512,313.8,511.9,312.7,511.6,311.6z M424.1,70l54,230H431v-85c0-8.3-6.7-15-15-15h-15v-85c0-8.3-6.7-15-15-15h-15V70H424.1z
		 M371,130v70H141v-70H371z M401,230v70h-55c-6.5,0-12.2,4.1-14.2,10.3L315.2,360H196.8l-16.6-49.7c-2-6.1-7.8-10.3-14.2-10.3h-55
		v-70H401z M341,30v70H171V30H341z M87.9,70H141v30h-15c-8.3,0-15,6.7-15,15v85H96c-8.3,0-15,6.7-15,15v85H33.9L87.9,70z M30,482
		V330h125.2l16.6,49.7c2,6.1,7.8,10.3,14.2,10.3h140c6.5,0,12.2-4.1,14.2-10.3l16.6-49.7H482v152H30z"/>
</g>
</svg>
