<?xml version="1.0" encoding="utf-8"?>
<!-- Generator: Adobe Illustrator 24.1.0, SVG Export Plug-In . SVG Version: 6.00 Build 0)  -->
<svg version="1.1" id="Layer_1" xmlns="http://www.w3.org/2000/svg" xmlns:xlink="http://www.w3.org/1999/xlink" x="0px" y="0px"
	 viewBox="0 0 328 328" style="enable-background:new 0 0 328 328;" xml:space="preserve">
<style type="text/css">
	.st0{fill:#FFFFFF;}
</style>
<g id="XMLID_334_">
	<path id="XMLID_337_" class="st0" d="M177.8,64c0-34.6-28.1-62.8-62.8-62.8C80.4,1.3,52.3,29.4,52.3,64s28.1,62.7,62.8,62.7
		C149.6,126.8,177.8,98.6,177.8,64z"/>
	<path id="XMLID_338_" class="st0" d="M228.6,181.1c-5.9-5.9-15.4-5.9-21.2,0c-5.9,5.9-5.9,15.4,0,21.2l19.4,19.4l-19.4,19.4
		c-5.9,5.9-5.9,15.4,0,21.2c2.9,2.9,6.8,4.4,10.6,4.4c3.8,0,7.7-1.5,10.6-4.4l30-30c2.8-2.8,4.4-6.6,4.4-10.6s-1.6-7.8-4.4-10.6
		L228.6,181.1z"/>
	<path id="XMLID_340_" class="st0" d="M223,116.8c-34.5,0-65.1,16.7-84.3,42.5c-7.8-1.6-15.7-2.5-23.7-2.5c-63.4,0-115,51.6-115,115
		c0,8.3,6.7,15,15,15h125.6c19.2,24.3,49,40,82.4,40c57.9,0,105-47.1,105-105C328,163.9,280.9,116.8,223,116.8z M223,296.8
		c-41.4,0-75-33.6-75-75s33.6-75,75-75c41.4,0,75,33.6,75,75S264.4,296.8,223,296.8z"/>
</g>
</svg>
