<?xml version="1.0" encoding="utf-8"?>
<!-- Generator: Adobe Illustrator 24.1.0, SVG Export Plug-In . SVG Version: 6.00 Build 0)  -->
<svg version="1.1" id="Layer_1" xmlns="http://www.w3.org/2000/svg" xmlns:xlink="http://www.w3.org/1999/xlink" x="0px" y="0px"
	 viewBox="0 0 328 328" style="enable-background:new 0 0 328 328;" xml:space="preserve">
<style type="text/css">
	.st0{fill:#FFFFFF;}
</style>
<g id="XMLID_350_">
	<path id="XMLID_351_" class="st0" d="M52.3,64c0,34.6,28.1,62.7,62.8,62.7c34.6,0,62.8-28.1,62.8-62.7S149.6,1.3,115,1.3
		C80.4,1.3,52.3,29.4,52.3,64z"/>
	<path id="XMLID_352_" class="st0" d="M217.4,262.4c2.9,2.9,6.8,4.4,10.6,4.4c3.8,0,7.7-1.5,10.6-4.4c5.9-5.9,5.9-15.4,0-21.2
		l-19.4-19.4l19.4-19.4c5.9-5.9,5.9-15.4,0-21.2c-5.9-5.9-15.4-5.9-21.2,0l-30,30c-2.8,2.8-4.4,6.6-4.4,10.6c0,4,1.6,7.8,4.4,10.6
		L217.4,262.4z"/>
	<path id="XMLID_439_" class="st0" d="M15,286.8h125.6c19.2,24.3,49,40,82.4,40c57.9,0,105-47.1,105-105c0-57.9-47.1-105-105-105
		c-34.5,0-65.1,16.7-84.3,42.5c-7.8-1.6-15.7-2.5-23.7-2.5c-63.4,0-115,51.6-115,115C0,280,6.7,286.8,15,286.8z M223,146.8
		c41.4,0,75,33.6,75,75s-33.6,75-75,75s-75-33.6-75-75S181.6,146.8,223,146.8z"/>
</g>
</svg>
