<?xml version="1.0" encoding="utf-8"?>
<!-- Generator: Adobe Illustrator 24.1.0, SVG Export Plug-In . SVG Version: 6.00 Build 0)  -->
<svg version="1.1" id="Capa_1" xmlns="http://www.w3.org/2000/svg" xmlns:xlink="http://www.w3.org/1999/xlink" x="0px" y="0px"
	 viewBox="0 0 512 512" style="enable-background:new 0 0 512 512;" xml:space="preserve">
<style type="text/css">
	.st0{fill:#FFFFFF;}
</style>
<g>
	<path class="st0" d="M509.7,194.6c-6.2-18.9-22.9-31-42.8-31H339L298.7,41.3c-6.2-18.8-22.9-30.9-42.7-30.9c-0.1,0-0.1,0-0.2,0
		c-19.9,0.1-36.6,12.3-42.7,31.3l-39.1,122h-129c-19.9,0-36.7,12.2-42.8,31.1c-6.1,18.9,0.3,38.7,16.5,50.3l104.3,75.4l-40.2,122
		c-6.2,18.9,0.1,38.7,16.2,50.4c8.1,5.9,17.3,8.8,26.6,8.8c9.2,0,18.3-2.9,26.4-8.7l104.5-75.6l103.3,75.4
		c16,11.7,36.8,11.8,52.9,0.1s22.6-31.3,16.5-50.2L390,320.5l103.5-75.6C509.5,233.2,515.8,213.5,509.7,194.6L509.7,194.6z
		 M475.8,220.7L354.8,309l45.8,142.9c3.1,9.6-3.4,15.2-5.5,16.7c-2.1,1.5-9.5,5.9-17.6,0l-120.9-88.3l-122.2,88.3
		c-8.2,5.9-15.6,1.5-17.6,0c-2.1-1.5-8.6-7.2-5.4-16.8l47-142.8L36.3,220.7c-8.2-5.9-6.3-14.3-5.5-16.8c0.8-2.4,4.1-10.4,14.3-10.4
		h150.8l45.8-142.8c3.1-9.6,11.7-10.4,14.2-10.4h0.1c2.6,0,11.1,0.8,14.3,10.3l47.1,142.9h149.6c10.1,0,13.5,7.9,14.3,10.3
		C482,206.3,483.9,214.7,475.8,220.7L475.8,220.7z"/>
</g>
</svg>
